<?xml version="1.0" encoding="UTF-8" standalone="no"?>
<!DOCTYPE svg PUBLIC "-//W3C//DTD SVG 1.1//EN" "http://www.w3.org/Graphics/SVG/1.1/DTD/svg11.dtd">
<svg version="1.1" xmlns="http://www.w3.org/2000/svg" xmlns:xlink="http://www.w3.org/1999/xlink" preserveAspectRatio="xMidYMid meet" viewBox="0 0 83.76 42" width="83.76" height="42"><defs><path d="M2.31 36.03C2.31 36.36 2.58 36.64 2.92 36.64C3.35 36.64 6.75 36.64 7.18 36.64C7.52 36.64 7.8 36.37 7.8 36.03C7.8 35.38 7.8 32.15 7.8 26.33C5.94 28.19 4.91 29.22 4.7 29.42C4.04 30.07 3.21 30.45 2.31 30.51C2.31 31.62 2.31 35.48 2.31 36.03Z" id="a8cnUbFXlk"></path><path d="M9.92 36.03C9.92 36.36 10.19 36.64 10.53 36.64C10.96 36.64 14.37 36.64 14.79 36.64C15.13 36.64 15.41 36.37 15.41 36.03C15.41 35.45 15.41 30.85 15.41 30.28C14.44 30.26 13.53 29.87 12.85 29.19C12.65 28.99 11.68 28.02 9.92 26.26C9.92 32.12 9.92 35.38 9.92 36.03Z" id="a9Uk3qEj7"></path><path d="M17.53 36.03C17.53 36.36 17.81 36.64 18.15 36.64C18.57 36.64 21.98 36.64 22.41 36.64C22.74 36.64 23.02 36.37 23.02 36.03C23.02 35.24 23.02 31.33 23.02 24.3C20.09 27.23 18.47 28.85 18.14 29.18C17.95 29.37 17.75 29.53 17.53 29.67C17.53 30.94 17.53 35.39 17.53 36.03Z" id="auog7Fo2p"></path><path d="M25.15 22.17C25.15 30.48 25.15 35.1 25.15 36.03C25.15 36.36 25.42 36.64 25.76 36.64C26.19 36.64 29.6 36.64 30.02 36.64C30.36 36.64 30.64 36.37 30.64 36.03C30.64 34.17 30.64 19.33 30.64 17.47C30.5 17.35 30.39 17.25 30.32 17.18C30.31 17.17 30.28 17.14 30.23 17.09L25.15 22.17Z" id="dYyYYIFEK"></path><path d="M32.81 7.76C32.77 7.76 32.73 7.76 32.7 7.76C30.71 7.85 28.74 7.95 26.75 8.04C26.49 8.05 26.12 8.07 25.84 8.36C25.75 8.45 25.68 8.55 25.62 8.68C25.33 9.31 25.74 9.72 25.94 9.92C25.99 9.97 26.38 10.37 26.43 10.42C26.77 10.77 27.12 11.12 27.47 11.46C26.67 12.26 22.68 16.26 15.49 23.46C12.25 20.23 10.46 18.43 10.1 18.07C9.78 17.75 9.35 17.57 8.89 17.57C8.42 17.57 8 17.75 7.68 18.07C6.96 18.79 1.22 24.52 0.5 25.24C-0.17 25.91 -0.17 26.99 0.5 27.66C0.54 27.7 0.79 27.95 0.82 27.99C1.15 28.31 1.58 28.49 2.04 28.49C2.5 28.49 2.93 28.31 3.25 27.99C3.62 27.61 5.5 25.73 8.89 22.35C12.12 25.58 13.91 27.38 14.27 27.73C14.59 28.06 15.03 28.24 15.49 28.24C15.95 28.24 16.37 28.06 16.7 27.73C17.6 26.83 22.11 22.32 30.23 14.21C31.14 15.12 31.65 15.63 31.75 15.73C31.94 15.91 32.19 16.17 32.57 16.17C32.73 16.17 32.89 16.12 33.06 16.03C33.17 15.97 33.27 15.9 33.35 15.82C33.65 15.52 33.71 15.13 33.72 14.83C33.78 13.55 33.84 12.26 33.91 10.97C33.92 10.77 33.99 9.23 34 9.03C34.02 8.63 33.93 8.31 33.71 8.09C33.51 7.87 33.2 7.76 32.81 7.76Z" id="a15ETdqBGD"></path><path d="M52.35 36.64C52.75 36.64 55.89 36.64 56.28 36.64C56.79 36.64 57.2 36.23 57.2 35.72C57.2 34.62 57.2 29.15 57.2 19.3C53.74 15.83 51.82 13.91 51.43 13.53C51.43 13.53 51.43 35.72 51.43 35.72C51.43 36.23 51.84 36.64 52.35 36.64Z" id="a1pSZEmCDs"></path><path d="M59.45 35.72C59.45 36.23 59.86 36.64 60.37 36.64C60.76 36.64 63.9 36.64 64.29 36.64C64.8 36.64 65.22 36.23 65.22 35.72C65.22 34.75 65.22 26.97 65.22 26C64.24 25.87 63.34 25.44 62.63 24.73C62.42 24.52 61.36 23.46 59.45 21.54C59.45 30.05 59.45 34.77 59.45 35.72Z" id="au4ZoMtZQ"></path><path d="M75.48 35.72C75.48 36.23 75.9 36.64 76.41 36.64C76.8 36.64 79.94 36.64 80.33 36.64C80.84 36.64 81.25 36.23 81.25 35.72C81.25 35.15 81.25 30.59 81.25 30.02C79.51 29.93 77.76 29.86 76.01 29.77C75.89 29.77 75.7 29.75 75.48 29.72C75.48 30.92 75.48 35.12 75.48 35.72Z" id="b1RVNivKO"></path><path d="M71.64 22.02C70.02 23.65 69.12 24.55 68.94 24.73C68.51 25.16 68.01 25.49 67.46 25.71C67.46 26.71 67.46 34.72 67.46 35.72C67.46 36.23 67.87 36.64 68.39 36.64C68.78 36.64 71.92 36.64 72.31 36.64C72.82 36.64 73.23 36.23 73.23 35.72C73.23 35.01 73.23 29.31 73.23 28.6C72.95 28.3 72.71 27.96 72.53 27.56C72.23 26.89 71.69 25.2 73.15 23.53C72.95 23.33 72.45 22.83 71.64 22.02Z" id="g7n5EJZlI"></path><path d="M83.66 24.04C83.6 22.68 83.53 21.33 83.47 19.98C83.46 19.66 83.4 19.25 83.08 18.94C83 18.86 82.89 18.77 82.77 18.71C82.6 18.61 82.42 18.57 82.26 18.57C81.85 18.57 81.58 18.84 81.39 19.02C81.35 19.07 81 19.42 80.95 19.46C80.6 19.82 80.25 20.17 79.89 20.53C79.86 20.56 79.82 20.59 79.79 20.63C79.1 19.94 73.61 14.45 72.92 13.76C72.58 13.42 72.13 13.23 71.65 13.23C71.18 13.23 70.71 13.42 70.38 13.76C70.07 14.07 68.55 15.6 65.8 18.35C58.23 10.78 54.03 6.58 53.19 5.74C52.84 5.4 52.4 5.21 51.91 5.21C51.43 5.21 50.98 5.4 50.63 5.74C50.6 5.78 50.33 6.05 50.29 6.09C49.58 6.79 49.58 7.93 50.29 8.64C51.71 10.06 63.09 21.43 64.51 22.86C64.85 23.2 65.3 23.39 65.78 23.39C66.27 23.39 66.72 23.2 67.06 22.86C67.37 22.55 68.9 21.02 71.64 18.28C74.79 21.42 76.54 23.17 76.89 23.52C76.52 23.88 76.16 24.25 75.79 24.62C75.74 24.67 75.32 25.09 75.27 25.14C75.06 25.35 74.62 25.79 74.94 26.45C75 26.58 75.08 26.7 75.17 26.79C75.47 27.09 75.86 27.11 76.13 27.12C78.21 27.21 80.3 27.31 82.39 27.41C82.42 27.41 82.46 27.41 82.51 27.41C82.92 27.41 83.24 27.3 83.46 27.07C83.68 26.84 83.78 26.51 83.76 26.07C83.74 25.67 83.67 24.24 83.66 24.04Z" id="d61qoGh1CQ"></path><path d="M43.93 0.42L45.93 0.42L45.93 42.42L43.93 42.42L43.93 0.42Z" id="a1v9ycSqm2"></path><path d="M37.93 0.42L39.93 0.42L39.93 42.42L37.93 42.42L37.93 0.42Z" id="d6dr6s2WPF"></path></defs><g><g><g><use xlink:href="#a8cnUbFXlk" opacity="1" fill="#ffffff" fill-opacity="1"></use><g><use xlink:href="#a8cnUbFXlk" opacity="1" fill-opacity="0" stroke="#000000" stroke-width="1" stroke-opacity="0"></use></g></g><g><use xlink:href="#a9Uk3qEj7" opacity="1" fill="#ffffff" fill-opacity="1"></use><g><use xlink:href="#a9Uk3qEj7" opacity="1" fill-opacity="0" stroke="#000000" stroke-width="1" stroke-opacity="0"></use></g></g><g><use xlink:href="#auog7Fo2p" opacity="1" fill="#ffffff" fill-opacity="1"></use><g><use xlink:href="#auog7Fo2p" opacity="1" fill-opacity="0" stroke="#000000" stroke-width="1" stroke-opacity="0"></use></g></g><g><use xlink:href="#dYyYYIFEK" opacity="1" fill="#ffffff" fill-opacity="1"></use><g><use xlink:href="#dYyYYIFEK" opacity="1" fill-opacity="0" stroke="#000000" stroke-width="1" stroke-opacity="0"></use></g></g><g><use xlink:href="#a15ETdqBGD" opacity="1" fill="#ffffff" fill-opacity="1"></use><g><use xlink:href="#a15ETdqBGD" opacity="1" fill-opacity="0" stroke="#000000" stroke-width="1" stroke-opacity="0"></use></g></g><g><use xlink:href="#a1pSZEmCDs" opacity="1" fill="#ffffff" fill-opacity="1"></use><g><use xlink:href="#a1pSZEmCDs" opacity="1" fill-opacity="0" stroke="#000000" stroke-width="1" stroke-opacity="0"></use></g></g><g><use xlink:href="#au4ZoMtZQ" opacity="1" fill="#ffffff" fill-opacity="1"></use><g><use xlink:href="#au4ZoMtZQ" opacity="1" fill-opacity="0" stroke="#000000" stroke-width="1" stroke-opacity="0"></use></g></g><g><use xlink:href="#b1RVNivKO" opacity="1" fill="#ffffff" fill-opacity="1"></use><g><use xlink:href="#b1RVNivKO" opacity="1" fill-opacity="0" stroke="#000000" stroke-width="1" stroke-opacity="0"></use></g></g><g><use xlink:href="#g7n5EJZlI" opacity="1" fill="#ffffff" fill-opacity="1"></use><g><use xlink:href="#g7n5EJZlI" opacity="1" fill-opacity="0" stroke="#000000" stroke-width="1" stroke-opacity="0"></use></g></g><g><use xlink:href="#d61qoGh1CQ" opacity="1" fill="#ffffff" fill-opacity="1"></use><g><use xlink:href="#d61qoGh1CQ" opacity="1" fill-opacity="0" stroke="#000000" stroke-width="1" stroke-opacity="0"></use></g></g><g><use xlink:href="#a1v9ycSqm2" opacity="1" fill="#ffffff" fill-opacity="1"></use></g><g><use xlink:href="#d6dr6s2WPF" opacity="1" fill="#ffffff" fill-opacity="1"></use></g></g></g></svg>